# xmcd
#
# Track frame offsets: 
#        150
#        12377
#        25120
#        37510
#        49812
#        61055
#        73765
#        86627
#        97140
#        108117
#        119805
#        133010
#        141047
#        152915
#        163827
#        178250
#        189845
#        200562
#        212957
#        225392
#        237640
#        250400
#        263975
#        275177
#
# Disc length: 3833 seconds
#
# Revision: 0
# Processed by: cddbd v1.5.2PL0 Copyright (c) Steve Scherf et al.
# Submitted via: ExactAudioCopy v0.99pb4
#
DISCID=660ef718
DTITLE=Sonny Boy Williamson II - Sonny Boy's Rhythm
DYEAR=1900
DGENRE=Blues
TTITLE0=Empty Bedroom
TTITLE1=From The Bottom take 1
TTITLE2=From The Bottom take 3
TTITLE3=Jackson 309
TTITLE4=City of New Orleans
TTITLE5=She's Crazy take 1 
TTITLE6=She's Crazy take 2
TTITLE7=Sonny's Rhythm take 1
TTITLE8=Sonny's Rhythm take 2
TTITLE9=Red Hot Kisses
TTITLE10=Cat Hop
TTITLE11=Going In Your Direction take 4
TTITLE12=Going In Your Direction take 5
TTITLE13=Gettin' Out of Town
TTITLE14=Keep It To Yourself take 1
TTITLE15=Keep It To Yourself take 2
TTITLE16=Shuckin' Mama
TTITLE17=I Ain't Beggin' Nobody take 2
TTITLE18=I Ain't Beggin' Nobody take 3
TTITLE19=Clowin' With The World take 1
TTITLE20=Clowin' With The World take 2
TTITLE21=No Nights By Myself
TTITLE22=Boppin' With Sonny
TTITLE23=From The Bottom take 6
EXTD=
EXTT0=
EXTT1=
EXTT2=
EXTT3=
EXTT4=
EXTT5=
EXTT6=
EXTT7=
EXTT8=
EXTT9=
EXTT10=
EXTT11=
EXTT12=
EXTT13=
EXTT14=
EXTT15=
EXTT16=
EXTT17=
EXTT18=
EXTT19=
EXTT20=
EXTT21=
EXTT22=
EXTT23=
PLAYORDER=
